<?xml version="1.0" standalone="no"?>
<!DOCTYPE svg PUBLIC "-//W3C//DTD SVG 20010904//EN"
 "http://www.w3.org/TR/2001/REC-SVG-20010904/DTD/svg10.dtd">
<svg version="1.0" xmlns="http://www.w3.org/2000/svg"
 width="800.000000pt" height="800.000000pt" viewBox="0 0 800.000000 800.000000"
 preserveAspectRatio="xMidYMid meet">
<metadata>
Created by potrace 1.14, written by Peter Selinger 2001-2017
</metadata>
<g transform="translate(0.000000,800.000000) scale(0.100000,-0.100000)"
fill="#000000" stroke="none">
<path d="M2860 6729 c-896 -25 -1665 -88 -1949 -160 -288 -73 -541 -298 -654
-581 -88 -219 -158 -771 -188 -1483 -13 -307 -7 -1031 11 -1300 35 -539 99
-982 171 -1180 99 -273 338 -506 609 -593 349 -113 1581 -182 3245 -182 1479
0 2540 58 2940 160 353 90 627 366 715 718 28 111 76 417 100 627 109 987 80
2193 -71 2953 -59 298 -123 434 -283 601 -156 162 -359 263 -611 305 -306 51
-958 91 -1890 116 -420 11 -1731 11 -2145 -1z m2020 -1779 l0 -180 209 -2 208
-3 -644 -1115 c-354 -613 -647 -1121 -652 -1128 -4 -8 -247 403 -658 1115
l-651 1128 214 3 214 2 0 180 0 180 880 0 880 0 0 -180z"/>
</g>
</svg>
